<?xml version="1.0" encoding="UTF-8" standalone="no"?>
<!-- Created with Inkscape (http://www.inkscape.org/) -->

<svg
   xmlns:dc="http://purl.org/dc/elements/1.1/"
   xmlns:cc="http://creativecommons.org/ns#"
   xmlns:rdf="http://www.w3.org/1999/02/22-rdf-syntax-ns#"
   xmlns:svg="http://www.w3.org/2000/svg"
   xmlns="http://www.w3.org/2000/svg"
   xmlns:sodipodi="http://sodipodi.sourceforge.net/DTD/sodipodi-0.dtd"
   xmlns:inkscape="http://www.inkscape.org/namespaces/inkscape"
   width="554.46539"
   height="89.691246"
   viewBox="0 0 519.81129 84.085544"
   id="svg4163"
   version="1.1"
   inkscape:version="0.92.1 r15371"
   sodipodi:docname="Infocom Logo_white.svg">
  <title
     id="title4795">Infocom Logo</title>
  <defs
     id="defs4165" />
  <sodipodi:namedview
     id="base"
     pagecolor="#ffffff"
     bordercolor="#666666"
     borderopacity="1.0"
     inkscape:pageopacity="0.0"
     inkscape:pageshadow="2"
     inkscape:zoom="1.979899"
     inkscape:cx="172.63385"
     inkscape:cy="79.05843"
     inkscape:document-units="px"
     inkscape:current-layer="layer1"
     showgrid="false"
     showguides="true"
     inkscape:guide-bbox="true"
     fit-margin-top="5"
     fit-margin-left="5"
     fit-margin-right="5"
     fit-margin-bottom="5"
     units="px"
     inkscape:window-width="1920"
     inkscape:window-height="1057"
     inkscape:window-x="1358"
     inkscape:window-y="-8"
     inkscape:window-maximized="1" />
  <metadata
     id="metadata4168">
    <rdf:RDF>
      <cc:Work
         rdf:about="">
        <dc:format>image/svg+xml</dc:format>
        <dc:type
           rdf:resource="http://purl.org/dc/dcmitype/StillImage" />
        <dc:title>Infocom Logo</dc:title>
        <cc:license
           rdf:resource="" />
        <dc:description>SVG recreation of the Infocom logo</dc:description>
      </cc:Work>
    </rdf:RDF>
  </metadata>
  <g
     inkscape:label="Layer 1"
     inkscape:groupmode="layer"
     id="layer1"
     transform="translate(-134.06821,-319.18945)">
    <rect
       style="opacity:1;fill:#ffffff;fill-opacity:1;stroke:none;stroke-width:2;stroke-linecap:square;stroke-linejoin:bevel;stroke-miterlimit:4;stroke-dasharray:none;stroke-opacity:1"
       id="rect4734"
       width="21.691362"
       height="72.752632"
       x="139.06821"
       y="324.19016"
       ry="12.184965" />
    <path
       style="opacity:1;fill:#ffffff;fill-opacity:1;stroke:none;stroke-width:2;stroke-linecap:square;stroke-linejoin:bevel;stroke-miterlimit:4;stroke-dasharray:none;stroke-opacity:1"
       d="m 175.91406,324.18945 c -2.40178,0 -4.60902,0.87988 -6.40234,2.35352 -2.86444,1.98918 -4.70899,5.09199 -4.70899,8.59961 0,0.77881 0.0934,1.53588 0.26563,2.26758 v 47.34765 c 0,6.75047 4.8372,12.18555 10.8457,12.18555 6.00851,0 10.84571,-5.43508 10.84571,-12.18555 v -38.72656 h 27.92968 v 38.72656 c 0,6.75047 4.8372,12.18555 10.84571,12.18555 6.0085,0 10.8457,-5.43508 10.8457,-12.18555 V 336.375 c 0,-6.75047 -4.8372,-12.18555 -10.8457,-12.18555 -0.44749,0 -0.88538,0.0391 -1.31836,0.0977 -0.26898,-0.0157 -0.53698,-0.0352 -0.81055,-0.0352 h -46.38086 c -0.36549,-0.0414 -0.7358,-0.0625 -1.11133,-0.0625 z"
       id="rect4736"
       inkscape:connector-curvature="0" />
    <path
       style="opacity:1;fill:#ffffff;fill-opacity:1;stroke:none;stroke-width:2;stroke-linecap:square;stroke-linejoin:bevel;stroke-miterlimit:4;stroke-dasharray:none;stroke-opacity:1"
       d="m 251.2832,324.18945 c -6.0085,0 -10.8457,5.43508 -10.8457,12.18555 v 48.38281 c 0,6.75047 4.8372,12.18555 10.8457,12.18555 6.00851,0 10.84571,-5.43508 10.84571,-12.18555 v -11.29687 h 37.27734 c 6.75047,0 12.18555,-4.85738 12.18555,-10.89063 0,-6.03324 -5.43508,-10.89062 -12.18555,-10.89062 h -37.27734 v -5.64844 h 37.27734 c 6.75047,0 12.18555,-4.85543 12.18555,-10.88867 0,-6.03324 -5.43508,-10.89063 -12.18555,-10.89063 h -46.41797 c -0.15954,0 -0.31464,0.0161 -0.47266,0.0215 -0.40512,-0.0511 -0.81474,-0.084 -1.23242,-0.084 z"
       id="rect4740"
       inkscape:connector-curvature="0" />
    <path
       style="opacity:1;fill:#ffffff;fill-opacity:1;stroke:none;stroke-width:2;stroke-linecap:square;stroke-linejoin:bevel;stroke-miterlimit:4;stroke-dasharray:none;stroke-opacity:1"
       d="m 340.89062,324.18945 c -14.65516,0 -26.45312,11.79796 -26.45312,26.45313 v 18.83594 c 0,14.65516 11.79796,26.45507 26.45312,26.45507 h 19.29102 c 14.65517,0 26.45508,-11.79991 26.45508,-26.45507 v -18.83594 c 0,-14.65517 -11.79991,-26.45313 -26.45508,-26.45313 z m 1.38086,22.47657 h 15.24024 c 3.87859,0 7.00195,3.12335 7.00195,7.00195 v 15.05469 c 0,3.87859 -3.12336,7 -7.00195,7 h -15.24024 c -3.87859,0 -7,-3.12141 -7,-7 v -15.05469 c 0,-3.8786 3.12141,-7.00195 7,-7.00195 z"
       id="rect4742"
       inkscape:connector-curvature="0" />
    <path
       style="opacity:1;fill:#ffffff;fill-opacity:1;stroke:none;stroke-width:2;stroke-linecap:square;stroke-linejoin:bevel;stroke-miterlimit:4;stroke-dasharray:none;stroke-opacity:1"
       d="m 550.98828,324.25195 c -6.75047,0 -12.18555,4.85739 -12.18555,10.89063 0,0.39877 0.026,0.7903 0.0723,1.17773 -0.0621,0.52867 -0.10352,1.0631 -0.10352,1.61133 v 46.41992 c 0,6.75047 4.85739,12.1836 10.89063,12.1836 6.03324,0 10.88867,-5.43313 10.88867,-12.1836 v -38.32031 h 5.35078 v 38.32031 c 0,6.75047 4.85739,12.1836 10.89063,12.1836 6.03324,0 10.91091,-5.43317 10.88867,-12.1836 v -38.32031 h 2.52031 l 14.54297,43.62109 c 2.13523,6.40388 8.46207,10.02165 14.18555,8.11328 5.72347,-1.90836 8.61179,-8.60002 6.47656,-15.0039 l -14.68164,-44.03516 c -0.5011,-1.37401 -0.76824,-2.25143 -1.13281,-3.58398 -1.21386,-5.90987 -5.43508,-10.89063 -12.18555,-10.89063 z"
       id="rect4762"
       inkscape:connector-curvature="0"
       sodipodi:nodetypes="sscssssccssscccscccss" />
    <path
       style="opacity:1;fill:#ffffff;fill-opacity:1;stroke:none;stroke-width:2;stroke-linecap:square;stroke-linejoin:bevel;stroke-miterlimit:4;stroke-dasharray:none;stroke-opacity:1"
       d="m 416.89062,324.18945 c -14.65516,0 -26.45312,11.79796 -26.45312,26.45313 v 18.83594 c 0,14.2876 11.21503,25.85618 25.35742,26.42773 v 0.125 h 33.61133 c 6.75047,0 12.18555,-4.85543 12.18555,-10.88867 0,-6.03324 -5.43508,-10.89063 -12.18555,-10.89063 h -33.61133 v 0.10547 c -2.44559,-1.08962 -4.14453,-3.53323 -4.14453,-6.39258 v -15.05468 c 0,-3.43804 2.45438,-6.27703 5.71289,-6.87891 h 32.04297 c 6.75047,0 12.18555,-4.85543 12.18555,-10.88867 0,-6.03324 -5.43508,-10.89063 -12.18555,-10.89063 h -25.39453 v -0.0625 z"
       id="rect4752"
       inkscape:connector-curvature="0" />
    <path
       id="path4785"
       d="m 490.17634,324.18945 c -14.65516,0 -26.45312,11.79796 -26.45312,26.45313 v 18.83594 c 0,14.65516 11.79796,26.45507 26.45312,26.45507 h 19.29102 c 14.65517,0 26.45508,-11.79991 26.45508,-26.45507 v -18.83594 c 0,-14.65517 -11.79991,-26.45313 -26.45508,-26.45313 z m 1.38086,22.47657 h 15.24024 c 3.87859,0 7.00195,3.12335 7.00195,7.00195 v 15.05469 c 0,3.87859 -3.12336,7 -7.00195,7 H 491.5572 c -3.87859,0 -7,-3.12141 -7,-7 v -15.05469 c 0,-3.8786 3.12141,-7.00195 7,-7.00195 z"
       style="opacity:1;fill:#ffffff;fill-opacity:1;stroke:none;stroke-width:2;stroke-linecap:square;stroke-linejoin:bevel;stroke-miterlimit:4;stroke-dasharray:none;stroke-opacity:1"
       inkscape:connector-curvature="0" />
    <path
       inkscape:connector-curvature="0"
       id="path4792"
       style="font-style:normal;font-variant:normal;font-weight:normal;font-stretch:normal;font-size:medium;line-height:125%;font-family:'Segoe UI';-inkscape-font-specification:'Segoe UI, Normal';text-align:start;letter-spacing:0px;word-spacing:0px;writing-mode:lr-tb;text-anchor:start;fill:#ffffff;fill-opacity:1;stroke:none;stroke-width:1px;stroke-linecap:butt;stroke-linejoin:miter;stroke-opacity:1"
       d="m 648.87948,346.74799 h -2.49261 v -11.03212 h -0.0923 l -5.05447,11.03212 h -1.3617 l -4.93907,-11.03212 h -0.0923 v 11.03212 H 632.4929 V 331.4692 h 2.93113 l 5.19294,11.44755 h 0.0923 l 5.26218,-11.44755 h 2.90805 v 15.27879 z m -18.32532,-13.01698 h -4.82366 v 13.01698 h -2.56186 v -13.01698 h -4.75442 v -2.26181 h 12.13994 z" />
  </g>
</svg>
